<svg width="16" height="16" viewBox="0 0 16 16" fill="none" xmlns="http://www.w3.org/2000/svg">
<path d="M8.00332 3.99374C5.73189 3.99374 3.89975 5.81062 3.89975 8.06312C3.89975 10.3156 5.73189 12.1325 8.00332 12.1325C10.2747 12.1325 12.1069 10.3156 12.1069 8.06312C12.1069 5.81062 10.2747 3.99374 8.00332 3.99374ZM8.00332 10.7087C6.53546 10.7087 5.33546 9.52228 5.33546 8.06312C5.33546 6.60395 6.53189 5.41749 8.00332 5.41749C9.47475 5.41749 10.6712 6.60395 10.6712 8.06312C10.6712 9.52228 9.47118 10.7087 8.00332 10.7087ZM13.2319 3.82729C13.2319 4.35499 12.8033 4.77645 12.2747 4.77645C11.7426 4.77645 11.3176 4.35145 11.3176 3.82729C11.3176 3.30312 11.7462 2.87812 12.2747 2.87812C12.8033 2.87812 13.2319 3.30312 13.2319 3.82729ZM15.9497 4.79062C15.889 3.51916 15.5962 2.39291 14.6569 1.465C13.7212 0.53708 12.5855 0.246664 11.3033 0.182914C9.98189 0.108539 6.02118 0.108539 4.69975 0.182914C3.42118 0.243122 2.28546 0.533538 1.34618 1.46145C0.406892 2.38937 0.117606 3.51562 0.0533203 4.78708C-0.0216797 6.09749 -0.0216797 10.0252 0.0533203 11.3356C0.114035 12.6071 0.406892 13.7333 1.34618 14.6612C2.28546 15.5892 3.41761 15.8796 4.69975 15.9433C6.02118 16.0177 9.98189 16.0177 11.3033 15.9433C12.5855 15.8831 13.7212 15.5927 14.6569 14.6612C15.5926 13.7333 15.8855 12.6071 15.9497 11.3356C16.0247 10.0252 16.0247 6.10104 15.9497 4.79062ZM14.2426 12.7417C13.964 13.4358 13.4247 13.9706 12.7212 14.2504C11.6676 14.6648 9.1676 14.5692 8.00332 14.5692C6.83903 14.5692 4.33546 14.6612 3.28546 14.2504C2.58546 13.9742 2.04618 13.4394 1.76403 12.7417C1.34618 11.6969 1.44261 9.2177 1.44261 8.06312C1.44261 6.90854 1.34975 4.42583 1.76403 3.38458C2.04261 2.69041 2.58189 2.15562 3.28546 1.87583C4.33903 1.46145 6.83903 1.55708 8.00332 1.55708C9.1676 1.55708 11.6712 1.465 12.7212 1.87583C13.4212 2.15208 13.9605 2.68687 14.2426 3.38458C14.6605 4.42937 14.564 6.90854 14.564 8.06312C14.564 9.2177 14.6605 11.7004 14.2426 12.7417Z" fill="white" fill-opacity="0.75"/>
</svg>
