<svg width="16" height="17" viewBox="0 0 16 17" fill="none" xmlns="http://www.w3.org/2000/svg">
<path d="M8 0.0666656C3.58065 0.0666656 0 3.64731 0 8.06667C0 12.486 3.58065 16.0667 8 16.0667C12.4194 16.0667 16 12.486 16 8.06667C16 3.64731 12.4194 0.0666656 8 0.0666656ZM11.929 5.54731L10.6161 11.7344C10.5194 12.1731 10.2581 12.2796 9.89355 12.0731L7.89355 10.5989L6.92903 11.528C6.82258 11.6344 6.73226 11.7247 6.52581 11.7247L6.66774 9.68925L10.3742 6.34086C10.5355 6.19892 10.3387 6.11828 10.1258 6.26021L5.54516 9.14408L3.57097 8.52796C3.14194 8.39247 3.13226 8.09892 3.66129 7.89247L11.3742 4.91828C11.7323 4.78925 12.0452 5.00537 11.929 5.54731Z" fill="white" fill-opacity="0.75"/>
</svg>
